<?xml version="1.0" encoding="utf-8"?>
<!-- Generator: Adobe Illustrator 19.0.0, SVG Export Plug-In . SVG Version: 6.00 Build 0)  -->
<svg version="1.1" id="Layer_1" xmlns="http://www.w3.org/2000/svg" xmlns:xlink="http://www.w3.org/1999/xlink" x="0px" y="0px"
	 viewBox="-320 495.5 200 200" style="enable-background:new -320 495.5 200 200;" xml:space="preserve">
<style type="text/css">
	.st0{fill:url(#SVGID_1_);}
	.st1{fill:url(#SVGID_2_);}
	.st2{fill:url(#SVGID_3_);}
	.st3{fill:url(#SVGID_4_);}
</style>
<title>Group 28 Copy 5</title>
<desc>Created with Sketch.</desc>
<g>
	<linearGradient id="SVGID_1_" gradientUnits="userSpaceOnUse" x1="-86.9886" y1="589.6537" x2="-214.9886" y2="765.6537">
		<stop  offset="0" style="stop-color:#29CDFF"/>
		<stop  offset="0.3786" style="stop-color:#148EFF"/>
		<stop  offset="1" style="stop-color:#0A60FF"/>
	</linearGradient>
	<path class="st0" d="M-137.9,689.9c-3.1-0.9-5.3-3-7.5-5.2c-7.6-7.7-15.2-15.2-23-23c5.8-3.9,10.6-8.6,14.5-14.6
		c3.4,3.5,6.7,6.8,10,10.1c4.3,4.3,8.6,8.7,13,13c2.2,2.2,4.3,4.5,5.2,7.5c0,1.4,0,2.8,0,4.2c-1.4,3.9-4.1,6.6-8,8
		C-135.1,689.9-136.5,689.9-137.9,689.9z"/>
	
		<linearGradient id="SVGID_2_" gradientUnits="userSpaceOnUse" x1="-352.4588" y1="663.608" x2="-177.1678" y2="556.0962" gradientTransform="matrix(0.9953 -9.685894e-02 9.685894e-02 0.9953 -56.1436 -18.6364)">
		<stop  offset="0" style="stop-color:#FA816E"/>
		<stop  offset="0.3374" style="stop-color:#F74A5C"/>
		<stop  offset="1" style="stop-color:#F51D2C"/>
	</linearGradient>
	<path class="st1" d="M-305.3,641.1l14.2-39.7c0.3-0.9,1.4-1.2,2.2-0.7l14.5,10.5c0.6,0.4,1.4,0.3,1.9-0.2l25.9-32.7
		c0.5-0.6,1.3-0.6,1.9-0.2l16.2,12.5c0.6,0.5,1.4,0.4,1.9-0.2l33.6-35.5c0.5-0.6,0.4-1.5-0.2-2l-12.6-9.9c-0.9-0.7-0.6-2.1,0.5-2.5
		l46.7-13.5c0.9-0.3,1.9,0.5,1.8,1.5l-5.2,46.1c-0.1,1.1-1.4,1.7-2.3,1l-11.9-9.3c-0.6-0.5-1.4-0.4-1.9,0.2l-46,51
		c-0.5,0.6-1.3,0.7-1.9,0.2l-16.1-11.7c-0.6-0.4-1.3-0.3-1.8,0.1l-26.2,29.3c-0.5,0.5-1.3,0.6-1.9,0.1l-15.1-12
		c-0.6-0.5-1.5-0.4-2,0.2l-13.8,18.6C-303.9,643.7-305.9,642.6-305.3,641.1z"/>
	<g>
		<linearGradient id="SVGID_3_" gradientUnits="userSpaceOnUse" x1="-153.9012" y1="542.5573" x2="-280.9495" y2="717.2488">
			<stop  offset="0" style="stop-color:#29CDFF"/>
			<stop  offset="0.3786" style="stop-color:#148EFF"/>
			<stop  offset="1" style="stop-color:#0A60FF"/>
		</linearGradient>
		<path class="st2" d="M-154.4,538.7l-3.2,33.6c1.4,5.5,2.1,11.2,2.1,17.1c0,12.9-3.5,25-9.5,35.4v-43.6h-12.6v59.6
			c-2.8,2.6-5.7,5-8.9,7.2v-49.5H-199v56.4c-2.9,1.2-5.8,2.2-8.9,3v-37.4h-12.6v39.5c-1.9,0.2-3.8,0.2-5.7,0.2c-1.1,0-2.1,0-3.2-0.1
			v-32.9h-12.6v30.7c-3-0.8-5.9-1.8-8.9-3v-14.5h-12.6v8.3c-2.6-1.5-5.1-3.1-7.5-4.8c-3.1-2.4-16.7-15.2-16.7-15.2l-10.3,13.1
			c16.2,22.1,42.3,36.4,71.7,36.4c49.1,0,88.8-39.8,88.8-88.8C-137.3,569.9-143.7,553.4-154.4,538.7z"/>
		<linearGradient id="SVGID_4_" gradientUnits="userSpaceOnUse" x1="-210.0514" y1="501.0921" x2="-337.4467" y2="676.2607">
			<stop  offset="0" style="stop-color:#29CDFF"/>
			<stop  offset="0.3786" style="stop-color:#148EFF"/>
			<stop  offset="1" style="stop-color:#0A60FF"/>
		</linearGradient>
		<path class="st3" d="M-296.8,589.4c0-39,31.7-70.7,70.7-70.7c14.7,0,28.4,4.5,39.7,12.2l20.4-5.6c-15.9-15.1-36.4-24.7-60.1-24.7
			c-49.1,0-88.8,39.8-88.8,88.8c0,14.4,3.4,28,9.5,40l9.7-27.7C-296.4,597.8-296.8,593.6-296.8,589.4z"/>
	</g>
</g>
</svg>
